<?xml version="1.0" encoding="UTF-8" standalone="no"?>
<!-- Created with Inkscape (http://www.inkscape.org/) -->

<svg
   version="1.1"
   id="svg2"
   width="368.27005"
   height="244.34834"
   viewBox="0 0 368.27005 244.34834"
   sodipodi:docname="HACC Logo Head.svg"
   inkscape:version="1.2.2 (b0a8486541, 2022-12-01)"
   xmlns:inkscape="http://www.inkscape.org/namespaces/inkscape"
   xmlns:sodipodi="http://sodipodi.sourceforge.net/DTD/sodipodi-0.dtd"
   xmlns="http://www.w3.org/2000/svg"
   xmlns:svg="http://www.w3.org/2000/svg">
  <defs
     id="defs6">
    <linearGradient
       x1="0"
       y1="0"
       x2="1"
       y2="0"
       gradientUnits="userSpaceOnUse"
       gradientTransform="matrix(430.20728,0,0,-430.20728,55.53447,532.91834)"
       spreadMethod="pad"
       id="linearGradient32">
      <stop
         style="stop-opacity:1;stop-color:#8cc757"
         offset="0"
         id="stop22" />
      <stop
         style="stop-opacity:1;stop-color:#8cc757"
         offset="0.0300065"
         id="stop24" />
      <stop
         style="stop-opacity:1;stop-color:#40b870"
         offset="0.290199"
         id="stop26" />
      <stop
         style="stop-opacity:1;stop-color:#009444"
         offset="0.547244"
         id="stop28" />
      <stop
         style="stop-opacity:1;stop-color:#006838"
         offset="1"
         id="stop30" />
    </linearGradient>
    <clipPath
       clipPathUnits="userSpaceOnUse"
       id="clipPath42">
      <path
         d="M 0,841.89 H 595.276 V 0 H 0 Z"
         id="path40" />
    </clipPath>
    <linearGradient
       x1="0"
       y1="0"
       x2="1"
       y2="0"
       gradientUnits="userSpaceOnUse"
       gradientTransform="matrix(386.60953,0,0,-386.60953,120.28996,304.63373)"
       spreadMethod="pad"
       id="linearGradient70">
      <stop
         style="stop-opacity:1;stop-color:#8cc757"
         offset="0"
         id="stop60" />
      <stop
         style="stop-opacity:1;stop-color:#8cc757"
         offset="0.0300065"
         id="stop62" />
      <stop
         style="stop-opacity:1;stop-color:#40b870"
         offset="0.290199"
         id="stop64" />
      <stop
         style="stop-opacity:1;stop-color:#009444"
         offset="0.547244"
         id="stop66" />
      <stop
         style="stop-opacity:1;stop-color:#006838"
         offset="1"
         id="stop68" />
    </linearGradient>
    <clipPath
       clipPathUnits="userSpaceOnUse"
       id="clipPath80">
      <path
         d="M 0,841.89 H 595.276 V 0 H 0 Z"
         id="path78" />
    </clipPath>
    <linearGradient
       x1="0"
       y1="0"
       x2="1"
       y2="0"
       gradientUnits="userSpaceOnUse"
       gradientTransform="matrix(48.417175,0,0,-48.417175,280.57581,466.1011)"
       spreadMethod="pad"
       id="linearGradient152">
      <stop
         style="stop-opacity:1;stop-color:#b0b2b4"
         offset="0"
         id="stop142" />
      <stop
         style="stop-opacity:1;stop-color:#b0b2b4"
         offset="0.0840151"
         id="stop144" />
      <stop
         style="stop-opacity:1;stop-color:#ffffff"
         offset="0.548788"
         id="stop146" />
      <stop
         style="stop-opacity:1;stop-color:#97999b"
         offset="0.887499"
         id="stop148" />
      <stop
         style="stop-opacity:1;stop-color:#3d3c3e"
         offset="1"
         id="stop150" />
    </linearGradient>
    <clipPath
       clipPathUnits="userSpaceOnUse"
       id="clipPath162">
      <path
         d="M 0,841.89 H 595.276 V 0 H 0 Z"
         id="path160" />
    </clipPath>
    <linearGradient
       x1="0"
       y1="0"
       x2="1"
       y2="0"
       gradientUnits="userSpaceOnUse"
       gradientTransform="matrix(177.09131,0,0,-177.09131,311.85614,510.90555)"
       spreadMethod="pad"
       id="linearGradient206">
      <stop
         style="stop-opacity:1;stop-color:#8cc757"
         offset="0"
         id="stop196" />
      <stop
         style="stop-opacity:1;stop-color:#8cc757"
         offset="0.0300065"
         id="stop198" />
      <stop
         style="stop-opacity:1;stop-color:#40b870"
         offset="0.290199"
         id="stop200" />
      <stop
         style="stop-opacity:1;stop-color:#009444"
         offset="0.547244"
         id="stop202" />
      <stop
         style="stop-opacity:1;stop-color:#006838"
         offset="1"
         id="stop204" />
    </linearGradient>
    <clipPath
       clipPathUnits="userSpaceOnUse"
       id="clipPath216">
      <path
         d="M 0,841.89 H 595.276 V 0 H 0 Z"
         id="path214" />
    </clipPath>
    <linearGradient
       x1="0"
       y1="0"
       x2="1"
       y2="0"
       gradientUnits="userSpaceOnUse"
       gradientTransform="matrix(191.16621,0,0,-191.16621,258.66586,450.43881)"
       spreadMethod="pad"
       id="linearGradient250">
      <stop
         style="stop-opacity:1;stop-color:#403f41"
         offset="0"
         id="stop242" />
      <stop
         style="stop-opacity:1;stop-color:#403f41"
         offset="0.0604874"
         id="stop244" />
      <stop
         style="stop-opacity:1;stop-color:#ffffff"
         offset="0.252421"
         id="stop246" />
      <stop
         style="stop-opacity:1;stop-color:#231f20"
         offset="1"
         id="stop248" />
    </linearGradient>
    <clipPath
       clipPathUnits="userSpaceOnUse"
       id="clipPath260">
      <path
         d="M 0,841.89 H 595.276 V 0 H 0 Z"
         id="path258" />
    </clipPath>
  </defs>
  <sodipodi:namedview
     id="namedview4"
     pagecolor="#ffffff"
     bordercolor="#000000"
     borderopacity="0.25"
     inkscape:showpageshadow="2"
     inkscape:pageopacity="0.0"
     inkscape:pagecheckerboard="0"
     inkscape:deskcolor="#d1d1d1"
     showgrid="false"
     inkscape:zoom="2"
     inkscape:cx="181.25"
     inkscape:cy="218.75"
     inkscape:window-width="3840"
     inkscape:window-height="2025"
     inkscape:window-x="0"
     inkscape:window-y="0"
     inkscape:window-maximized="1"
     inkscape:current-layer="g8" />
  <g
     id="g8"
     inkscape:groupmode="layer"
     inkscape:label="CyberSecurity (1)"
     transform="matrix(1.3333333,0,0,-1.3333333,-287.36708,755.53159)">
    <g
       id="g156"
       style="display:inline"
       inkscape:label="neckpiece"
       transform="matrix(-1,0,0,1,707.25318,0)">
      <g
         id="g158"
         clip-path="url(#clipPath162)">
        <g
           id="g172"
           transform="translate(371.9438,443.741)">
          <path
             d="M 16.847263,-42.569924 C 16.67065,-43.037498 14.768496,-47.433816 14.421,-48.027 2.666,-51.874 -9.088,-55.721 -20.842,-59.568 c 0.530903,1.573538 3.370468,9.779797 3.806956,11.076846 m 4.145874,12.066559 C -9.4154202,-26.496595 -3.4735,-9.928 0,0 33.017,5.362 66.034,10.725 99.052,16.087 93.922,2.623 88.793,-10.841 83.664,-24.305 62.903,-26.855 47.758479,-28.879403 26.997479,-31.429403"
             style="fill:none;stroke:#576b66;stroke-width:1;stroke-linecap:butt;stroke-linejoin:miter;stroke-miterlimit:10;stroke-dasharray:none;stroke-opacity:1"
             id="path174"
             sodipodi:nodetypes="ccccccccc" />
        </g>
        <g
           id="g176"
           transform="translate(372.9005,425.8474)" />
        <g
           id="g180"
           transform="translate(372.9005,425.8474)">
          <path
             d="m 0,0 c 11.281,1.432 22.561,2.865 33.842,4.297 -4.014,-9.34 -8.029,-18.679 -12.043,-28.019 -25.005,-4.275 -50.009,-8.549 -75.014,-12.823 l 0.59,14.619 c 14.977,1.325 29.954,2.649 44.931,3.974 z"
             style="fill:none;stroke:#576b66;stroke-width:1;stroke-linecap:butt;stroke-linejoin:miter;stroke-miterlimit:10;stroke-dasharray:none;stroke-opacity:1"
             id="path182" />
        </g>
      </g>
    </g>
    <g
       id="g184"
       style="display:inline"
       inkscape:label="head" />
    <g
       id="g210"
       style="display:inline"
       inkscape:label="beak"
       transform="matrix(-1,0,0,1,707.25318,0)">
      <g
         id="g212"
         clip-path="url(#clipPath216)">
        <g
           id="g218"
           transform="translate(315.8387,459.828)">
          <path
             d="M -4.4081963,33.073002 C 20.428804,34.870002 45.69,36.672 70.526,38.469 l 4.488,34.621 7.694,-33.339 51.291,65.397 -5.129,-49.369 -22.44,-17.31 66.679,17.31 -37.828,-25.004 -27.569,-5.129 17.778,-28.638"
             style="fill:none;stroke:#576b66;stroke-width:1;stroke-linecap:butt;stroke-linejoin:miter;stroke-miterlimit:10;stroke-dasharray:none;stroke-opacity:1"
             id="path220"
             sodipodi:nodetypes="ccccccccccc" />
        </g>
        <g
           id="g226"
           transform="translate(311.1294,491.5614)">
          <path
             d="m -20.182606,-48.496754 c -0.309961,-0.653357 -2.929104,-4.294821 -3.318394,-5.142246 -13.044,-3.122 -27.268,-7.241 -42.315,-12.716 -10.126,-3.684 -19.535,-7.586 -28.211,-11.541 21.475,-4.656 47.413,-8.582 76.937,-9.617 24.182,-0.848 46.454813,1.633116 65.238813,3.787116 4.702,13.25 8.047654,22.799601 12.749654,36.050601 M 4.1689906,-28.152624 C 2.8129906,-17.575624 1.356,-10.578 0,0 -3.917,-8.94 -8.2349455,-18.368161 -12.151696,-27.307911"
             style="fill:none;stroke:#576b66;stroke-width:0.99975;stroke-linecap:butt;stroke-linejoin:miter;stroke-miterlimit:10;stroke-dasharray:none;stroke-opacity:1"
             id="path228"
             sodipodi:nodetypes="cccccccccc" />
        </g>
      </g>
    </g>
    <g
       id="g254"
       inkscape:label="visor-outline"
       style="display:inline"
       transform="matrix(-1,0,0,1,707.25318,0)">
      <g
         id="g256"
         clip-path="url(#clipPath260)">
        <g
           id="g262"
           transform="translate(258.6659,466.3886)">
          <path
             d="M 0,0 C 63.722,-3.333 127.444,-6.665 191.166,-9.998 145.211,-17.298 99.256,-24.599 53.301,-31.9 49.676,-24.522 46.051,-17.144 42.427,-9.766 37.909,-15.239 34.421492,-20.881972 29.903492,-26.353972 20.279492,-17.626972 9.624,-8.728 0,0 Z"
             style="fill:#576b66;fill-opacity:1;stroke:#576b66;stroke-width:0.99975;stroke-linecap:butt;stroke-linejoin:miter;stroke-miterlimit:10;stroke-dasharray:none;stroke-opacity:1;paint-order:normal"
             id="path264"
             sodipodi:nodetypes="cccccc" />
        </g>
      </g>
    </g>
  </g>
  <g
     inkscape:groupmode="layer"
     id="layer1"
     inkscape:label="HACC Head"
     transform="translate(-287.36708,-366.98841)">
    <g
       inkscape:groupmode="layer"
       id="layer2"
       inkscape:label="Beak" />
  </g>
</svg>
