<svg version="1.1" viewBox="0.0 0.0 960.0 540.0" fill="none" stroke="none" stroke-linecap="square" stroke-miterlimit="10" xmlns:xlink="http://www.w3.org/1999/xlink" xmlns="http://www.w3.org/2000/svg"><clipPath id="p.0"><path d="m0 0l960.0 0l0 540.0l-960.0 0l0 -540.0z" clip-rule="nonzero"/></clipPath><g clip-path="url(#p.0)"><path fill="#576b66" d="m0 0l960.0 0l0 540.0l-960.0 0z" fill-rule="evenodd"/><path fill="#000000" fill-opacity="0.0" d="m0 245.76378l960.0 0l0 48.472427l-960.0 0z" fill-rule="evenodd"/><path fill="#0f1414" d="m146.18115 316.08002l0 -70.406265l11.515625 0l0 13.45314l2.4375 0l-2.4375 2.6875q0 -8.32814 4.984375 -12.875015q5.0 -4.546875 13.828125 -4.546875q10.625 0 16.890625 6.53125q6.28125 6.5312653 6.28125 17.79689l0 47.359375l-11.515625 0l0 -46.078125q0 -7.546875 -4.03125 -11.578125q-4.03125 -4.0468903 -10.953125 -4.0468903q-7.171875 0 -11.328125 4.3593903q-4.15625 4.359375 -4.15625 12.546875l0 44.796875l-11.515625 0zm103.42502 1.03125q-8.453125 0 -14.609375 -3.203125q-6.140625 -3.203125 -9.53125 -9.28125q-3.390625 -6.078125 -3.390625 -14.40625l0 -18.6875q0 -8.4375 3.390625 -14.453125q3.390625 -6.0312653 9.53125 -9.218765q6.15625 -3.203125 14.609375 -3.203125q8.4375 0 14.578125 3.203125q6.15625 3.1875 9.546875 9.218765q3.390625 6.015625 3.390625 14.328125l0 18.8125q0 8.328125 -3.390625 14.40625q-3.390625 6.078125 -9.546875 9.28125q-6.140625 3.203125 -14.578125 3.203125zm0 -10.25q7.546875 0 11.765625 -4.21875q4.234375 -4.21875 4.234375 -12.421875l0 -18.6875q0 -8.1875 -4.234375 -12.40625q-4.21875 -4.2343903 -11.765625 -4.2343903q-7.4375 0 -11.71875 4.2343903q-4.28125 4.21875 -4.28125 12.40625l0 18.6875q0 8.203125 4.28125 12.421875q4.28125 4.21875 11.71875 4.21875zm126.06879 9.21875l0 -10.5l24.96875 0l0 -49.40625l-21.765625 0l0 -10.500015l33.28125 0l0 59.906265l23.6875 0l0 10.5l-60.171875 0zm29.453125 -83.07814q-4.234375 0 -6.671875 -2.171875q-2.421875 -2.171875 -2.421875 -5.890625q0 -3.828125 2.421875 -6.0625q2.4375 -2.25 6.671875 -2.25q4.21875 0 6.640625 2.25q2.4375 2.234375 2.4375 6.0625q0 3.71875 -2.4375 5.890625q-2.421875 2.171875 -6.640625 2.171875zm44.92502 83.07814l0 -70.406265l10.109375 0l0 8.453125l2.296875 0l-1.78125 3.0781403q0 -5.8906403 3.125 -9.343765q3.140625 -3.46875 8.515625 -3.46875q5.890625 0 9.09375 4.359375q3.203125 4.359375 3.203125 12.281265l-3.46875 -6.9062653l5.375 0l-2.421875 3.0781403q0 -5.8906403 3.265625 -9.343765q3.265625 -3.46875 8.640625 -3.46875q6.65625 0 10.296875 5.0q3.65625 4.984375 3.65625 13.187515l0 53.5l-10.625 0l0 -53.625q0 -4.359375 -1.859375 -6.7812653q-1.859375 -2.4375 -5.4375 -2.4375q-3.46875 0 -5.453125 2.375q-1.96875 2.3593903 -1.96875 6.7031403l0 53.765625l-9.21875 0l0 -53.625q0 -4.484375 -1.984375 -6.8437653q-1.984375 -2.375 -5.578125 -2.375q-3.578125 0 -5.375 2.375q-1.78125 2.3593903 -1.78125 6.7031403l0 53.765625l-10.625 0zm100.596924 1.28125q-11.125 0 -17.53125 -5.6875q-6.40625 -5.703125 -6.40625 -15.4375q0 -9.859375 6.40625 -15.484375q6.40625 -5.625 17.28125 -5.625l21.765625 0l0 -7.046875q0 -6.53125 -3.90625 -10.046875q-3.90625 -3.5156403 -11.078125 -3.5156403q-6.265625 0 -10.5 2.6250153q-4.21875 2.625 -4.859375 7.09375l-11.515625 0q1.15625 -9.07814 8.578125 -14.45314q7.421875 -5.390625 18.5625 -5.390625q12.15625 0 19.1875 6.28125q7.046875 6.2656403 7.046875 17.01564l0 48.390625l-11.265625 0l0 -13.4375l-1.921875 0l1.921875 -1.921875q0 7.671875 -5.953125 12.15625q-5.953125 4.484375 -15.8125 4.484375zm2.828125 -9.09375q8.1875 0 13.4375 -4.09375q5.25 -4.09375 5.25 -10.5l0 -9.984375l-21.515625 0q-5.75 0 -9.078125 3.203125q-3.328125 3.203125 -3.328125 8.703125q0 5.890625 4.03125 9.28125q4.03125 3.390625 11.203125 3.390625zm62.331238 30.859375l0 -10.5l22.40625 0q5.375 0 7.859375 -2.4375q2.5 -2.421875 2.5 -7.546875l0 -8.96875l0.25 -12.796875l-2.296875 0l2.171875 -1.921875q0 7.6875 -5.125 12.171875q-5.109375 4.46875 -13.6875 4.46875q-10.875 0 -17.15625 -7.09375q-6.265625 -7.109375 -6.265625 -19.140625l0 -14.84375q0 -12.03125 6.265625 -19.07814q6.28125 -7.046875 17.15625 -7.046875q8.578125 0 13.6875 4.484375q5.125 4.484375 5.125 12.156265l-2.171875 -1.90625l2.171875 0l0 -13.45314l11.390625 0l0 72.968765q0 9.46875 -5.828125 14.96875q-5.8125 5.515625 -16.1875 5.515625l-22.265625 0zm17.53125 -37.515625q7.171875 0 11.265625 -4.46875q4.09375 -4.484375 4.09375 -12.421875l0 -13.4375q0 -7.9375 -4.09375 -12.421875q-4.09375 -4.4843903 -11.265625 -4.4843903q-7.296875 0 -11.328125 4.3593903q-4.03125 4.359375 -4.03125 12.546875l0 13.4375q0 8.1875 4.03125 12.546875q4.03125 4.34375 11.328125 4.34375zm77.06561 15.75q-8.328125 0 -14.546875 -3.328125q-6.203125 -3.328125 -9.59375 -9.40625q-3.390625 -6.078125 -3.390625 -14.140625l0 -19.203125q0 -8.1875 3.390625 -14.203125q3.390625 -6.0312653 9.59375 -9.35939q6.21875 -3.328125 14.546875 -3.328125q8.3125 0 14.515625 3.328125q6.21875 3.328125 9.609375 9.35939q3.390625 6.015625 3.390625 14.203125l0 12.40625l-43.78125 0l0 6.796875q0 8.3125 4.21875 12.734375q4.234375 4.40625 12.046875 4.40625q6.65625 0 10.75 -2.359375q4.09375 -2.375 4.984375 -7.109375l11.515625 0q-1.140625 8.828125 -8.640625 14.015625q-7.484375 5.1875 -18.609375 5.1875zm16.25 -41.34375l0 -4.734375q0 -8.328125 -4.15625 -12.796875q-4.15625 -4.4843903 -12.09375 -4.4843903q-7.8125 0 -12.046875 4.4843903q-4.21875 4.46875 -4.21875 12.796875l0 3.703125l33.40625 0l-0.890625 1.03125zm29.831299 52.859375l0 -9.59375l61.4375 0l0 9.59375l-61.4375 0z" fill-rule="nonzero"/></g></svg>