<svg version="1.1" viewBox="0.0 0.0 960.0 540.0" fill="none" stroke="none" stroke-linecap="square" stroke-miterlimit="10" xmlns:xlink="http://www.w3.org/1999/xlink" xmlns="http://www.w3.org/2000/svg"><clipPath id="p.0"><path d="m0 0l960.0 0l0 540.0l-960.0 0l0 -540.0z" clip-rule="nonzero"/></clipPath><g clip-path="url(#p.0)"><path fill="#576b66" d="m0 0l960.0 0l0 540.0l-960.0 0z" fill-rule="evenodd"/><path fill="#000000" fill-opacity="0.0" d="m0 245.76378l960.0 0l0 48.472427l-960.0 0z" fill-rule="evenodd"/><path fill="#0f1414" d="m144.25928 316.08002l0 -70.406265l15.609375 0l0 13.45314l4.359375 0l-4.359375 3.703125q0 -8.70314 5.046875 -13.562515q5.0625 -4.875 13.90625 -4.875q10.359375 0 16.5625 6.921875q6.21875 6.9062653 6.21875 18.562515l0 46.203125l-16.0 0l0 -44.546875q0 -6.390625 -3.328125 -9.84375q-3.328125 -3.46875 -9.34375 -3.46875q-5.890625 0 -9.28125 3.59375q-3.390625 3.578125 -3.390625 10.234375l0 44.03125l-16.0 0zm105.34689 1.15625q-8.96875 0 -15.5625 -3.390625q-6.59375 -3.390625 -10.25 -9.59375q-3.640625 -6.21875 -3.640625 -14.671875l0 -17.40625q0 -8.453125 3.640625 -14.65625q3.65625 -6.2031403 10.25 -9.593765q6.59375 -3.390625 15.5625 -3.390625q9.078125 0 15.609375 3.390625q6.53125 3.390625 10.171875 9.593765q3.65625 6.203125 3.65625 14.53125l0 17.53125q0 8.453125 -3.65625 14.671875q-3.640625 6.203125 -10.171875 9.59375q-6.53125 3.390625 -15.609375 3.390625zm0 -13.953125q6.390625 0 9.90625 -3.515625q3.53125 -3.53125 3.53125 -10.1875l0 -17.40625q0 -6.78125 -3.53125 -10.234375q-3.515625 -3.453125 -9.90625 -3.453125q-6.28125 0 -9.875 3.453125q-3.578125 3.453125 -3.578125 10.234375l0 17.40625q0 6.65625 3.578125 10.1875q3.59375 3.515625 9.875 3.515625zm124.92816 12.796875l0 -14.59375l24.5625 0l0 -41.34375l-21.375 0l0 -14.468765l36.734375 0l0 55.812515l21.765625 0l0 14.59375l-61.6875 0zm30.96875 -82.17189q-4.875 0 -7.6875 -2.5q-2.8125 -2.5 -2.8125 -6.71875q0 -4.21875 2.8125 -6.71875q2.8125 -2.5 7.6875 -2.5q4.859375 0 7.671875 2.5q2.8125 2.5 2.8125 6.71875q0 4.21875 -2.8125 6.71875q-2.8125 2.5 -7.671875 2.5zm42.753143 82.17189l0 -70.406265l13.0625 0l0 9.484375l2.6875 0l-2.1875 2.2968903q0 -5.8906403 3.328125 -9.468765q3.328125 -3.59375 8.578125 -3.59375q5.640625 0 8.765625 4.609375q3.140625 4.609375 3.140625 12.42189l-2.8125 -6.2656403l4.34375 0l-1.65625 2.2968903q0 -5.8906403 3.328125 -9.468765q3.328125 -3.59375 8.828125 -3.59375q6.53125 0 10.359375 4.875q3.84375 4.859375 3.84375 13.187515l0 53.625l-14.078125 0l0 -52.984375q0 -3.46875 -1.53125 -5.453125q-1.53125 -1.9843903 -4.484375 -1.9843903q-2.8125 0 -4.421875 1.9218903q-1.59375 1.921875 -1.59375 5.515625l0 52.984375l-11.515625 0l0 -52.984375q0 -3.59375 -1.546875 -5.515625q-1.53125 -1.9218903 -4.46875 -1.9218903q-2.9375 0 -4.421875 1.9218903q-1.46875 1.921875 -1.46875 5.515625l0 52.984375l-14.078125 0zm100.73755 1.28125q-10.875 0 -17.15625 -5.75q-6.265625 -5.765625 -6.265625 -15.5q0 -10.375 6.90625 -16.0q6.90625 -5.625 19.578125 -5.625l17.546875 0l0 -6.015625q0 -5.125 -3.328125 -8.0q-3.328125 -2.890625 -9.09375 -2.890625q-5.25 0 -8.703125 2.3125q-3.453125 2.296875 -4.09375 6.265625l-15.609375 0q1.140625 -9.984375 8.953125 -15.875015q7.8125 -5.890625 19.96875 -5.890625q12.921875 0 20.40625 6.46875q7.5 6.4687653 7.5 17.468765l0 47.75l-15.484375 0l0 -12.28125l-2.5625 0l2.5625 -3.46875q0 7.8125 -5.765625 12.421875q-5.765625 4.609375 -15.359375 4.609375zm5.25 -12.03125q6.78125 0 11.0625 -3.453125q4.296875 -3.453125 4.296875 -8.96875l0 -8.578125l-17.28125 0q-4.859375 0 -7.8125 2.828125q-2.9375 2.8125 -2.9375 7.421875q0 4.984375 3.390625 7.875q3.390625 2.875 9.28125 2.875zm60.409363 33.796875l0 -13.3125l20.859375 0q5.390625 0 8.078125 -2.625q2.6875 -2.625 2.6875 -7.5l0 -5.234375l0.25 -13.1875l-3.453125 0l3.453125 -3.453125q0 8.5625 -5.0625 13.375q-5.046875 4.796875 -13.625 4.796875q-10.75 0 -17.09375 -7.296875q-6.328125 -7.296875 -6.328125 -19.71875l0 -13.6875q0 -12.296875 6.328125 -19.593765q6.34375 -7.296875 17.09375 -7.296875q8.578125 0 13.625 4.8125q5.0625 4.796875 5.0625 13.375015l-3.453125 -3.453125l3.453125 0l-0.390625 -13.45314l16.0 0l0 70.406265q0 10.625 -7.046875 16.828125q-7.03125 6.21875 -19.3125 6.21875l-21.125 0zm18.5625 -40.96875q6.140625 0 9.53125 -3.640625q3.390625 -3.65625 3.390625 -10.1875l0 -12.28125q0 -6.53125 -3.390625 -10.171875q-3.390625 -3.65625 -9.53125 -3.65625q-6.140625 0 -9.46875 3.59375q-3.328125 3.578125 -3.328125 10.234375l0 12.28125q0 6.65625 3.328125 10.25q3.328125 3.578125 9.46875 3.578125zm77.31561 19.203125q-8.96875 0 -15.625 -3.453125q-6.65625 -3.453125 -10.3125 -9.65625q-3.640625 -6.21875 -3.640625 -14.546875l0 -17.65625q0 -8.328125 3.640625 -14.53125q3.65625 -6.2031403 10.3125 -9.656265q6.65625 -3.46875 15.625 -3.46875q8.828125 0 15.421875 3.46875q6.59375 3.453125 10.234375 9.656265q3.65625 6.203125 3.65625 14.53125l0 12.671875l-43.390625 0l0 4.984375q0 7.4375 3.578125 11.21875q3.578125 3.765625 10.625 3.765625q5.375 0 8.703125 -1.859375q3.328125 -1.859375 4.21875 -5.4375l15.75 0q-1.796875 9.09375 -9.671875 14.53125q-7.859375 5.4375 -19.125 5.4375zm13.828125 -41.59375l0 -3.84375q0 -7.296875 -3.46875 -11.203125q-3.453125 -3.90625 -10.359375 -3.90625q-6.921875 0 -10.5 3.96875q-3.578125 3.96875 -3.578125 11.265625l0 2.6875l29.046875 -0.25l-1.140625 1.28125zm32.128174 57.96875l0 -14.453125l61.4375 0l0 14.453125l-61.4375 0z" fill-rule="nonzero"/></g></svg>