<svg version="1.1" viewBox="0.0 0.0 960.0 540.0" fill="none" stroke="none" stroke-linecap="square" stroke-miterlimit="10" xmlns:xlink="http://www.w3.org/1999/xlink" xmlns="http://www.w3.org/2000/svg"><clipPath id="g28158777500_0_0.0"><path d="m0 0l960.0 0l0 540.0l-960.0 0l0 -540.0z" clip-rule="nonzero"/></clipPath><g clip-path="url(#g28158777500_0_0.0)"><path fill="#576b66" d="m0 0l960.0 0l0 540.0l-960.0 0z" fill-rule="evenodd"/><path fill="#000000" fill-opacity="0.0" d="m0 245.76378l960.0 0l0 48.472427l-960.0 0z" fill-rule="evenodd"/><path fill="#0f1414" d="m144.25928 316.08002l0 -70.406265l15.609375 0l0 13.45314l4.359375 0l-4.359375 3.703125q0 -8.70314 5.046875 -13.562515q5.0625 -4.875 13.90625 -4.875q10.359375 0 16.5625 6.921875q6.21875 6.9062653 6.21875 18.562515l0 46.203125l-16.0 0l0 -44.546875q0 -6.390625 -3.328125 -9.84375q-3.328125 -3.46875 -9.34375 -3.46875q-5.890625 0 -9.28125 3.59375q-3.390625 3.578125 -3.390625 10.234375l0 44.03125l-16.0 0zm105.34689 1.15625q-8.96875 0 -15.5625 -3.390625q-6.59375 -3.390625 -10.25 -9.59375q-3.640625 -6.21875 -3.640625 -14.671875l0 -17.40625q0 -8.453125 3.640625 -14.65625q3.65625 -6.2031403 10.25 -9.593765q6.59375 -3.390625 15.5625 -3.390625q9.078125 0 15.609375 3.390625q6.53125 3.390625 10.171875 9.593765q3.65625 6.203125 3.65625 14.53125l0 17.53125q0 8.453125 -3.65625 14.671875q-3.640625 6.203125 -10.171875 9.59375q-6.53125 3.390625 -15.609375 3.390625zm0 -13.953125q6.390625 0 9.90625 -3.515625q3.53125 -3.53125 3.53125 -10.1875l0 -17.40625q0 -6.78125 -3.53125 -10.234375q-3.515625 -3.453125 -9.90625 -3.453125q-6.28125 0 -9.875 3.453125q-3.578125 3.453125 -3.578125 10.234375l0 17.40625q0 6.65625 3.578125 10.1875q3.59375 3.515625 9.875 3.515625zm143.35004 12.796875l-23.171875 -70.406265l16.390625 0l13.4375 42.76564q1.15625 3.828125 2.234375 7.9375q1.09375 4.09375 1.609375 6.515625q0.640625 -2.421875 1.65625 -6.515625q1.03125 -4.109375 2.0625 -7.8125l13.171875 -42.89064l16.265625 0l-23.046875 70.406265l-20.609375 0zm58.378143 0l0 -14.59375l24.5625 0l0 -41.34375l-21.375 0l0 -14.468765l36.734375 0l0 55.812515l21.765625 0l0 14.59375l-61.6875 0zm30.96875 -82.17189q-4.875 0 -7.6875 -2.5q-2.8125 -2.5 -2.8125 -6.71875q0 -4.21875 2.8125 -6.71875q2.8125 -2.5 7.6875 -2.5q4.859375 0 7.671875 2.5q2.8125 2.5 2.8125 6.71875q0 4.21875 -2.8125 6.71875q-2.8125 2.5 -7.671875 2.5zm68.48755 83.45314q-10.5 0 -16.96875 -7.296875q-6.46875 -7.296875 -6.46875 -19.578125l0 -19.078125q0 -12.421875 6.40625 -19.718765q6.40625 -7.296875 17.03125 -7.296875q8.703125 0 13.8125 4.9375q5.125 4.921875 5.125 13.500015l-3.578125 -3.703125l3.703125 0l-0.515625 -16.781265l0 -19.703125l16.0 0l0 93.437515l-15.609375 0l0 -13.4375l-3.578125 0l3.578125 -3.71875q0 8.578125 -5.125 13.515625q-5.109375 4.921875 -13.8125 4.921875zm5.625 -13.828125q6.140625 0 9.53125 -3.640625q3.390625 -3.65625 3.390625 -10.1875l0 -17.65625q0 -6.53125 -3.390625 -10.171875q-3.390625 -3.65625 -9.53125 -3.65625q-6.140625 0 -9.609375 3.59375q-3.453125 3.578125 -3.453125 10.234375l0 17.65625q0 6.65625 3.453125 10.25q3.46875 3.578125 9.609375 3.578125zm77.31561 13.828125q-8.96875 0 -15.625 -3.453125q-6.65625 -3.453125 -10.3125 -9.65625q-3.640625 -6.21875 -3.640625 -14.546875l0 -17.65625q0 -8.328125 3.640625 -14.53125q3.65625 -6.2031403 10.3125 -9.656265q6.65625 -3.46875 15.625 -3.46875q8.828125 0 15.421875 3.46875q6.59375 3.453125 10.234375 9.656265q3.65625 6.203125 3.65625 14.53125l0 12.671875l-43.390625 0l0 4.984375q0 7.4375 3.578125 11.21875q3.578125 3.765625 10.625 3.765625q5.375 0 8.703125 -1.859375q3.328125 -1.859375 4.21875 -5.4375l15.75 0q-1.796875 9.09375 -9.671875 14.53125q-7.859375 5.4375 -19.125 5.4375zm13.828125 -41.59375l0 -3.84375q0 -7.296875 -3.46875 -11.203125q-3.453125 -3.90625 -10.359375 -3.90625q-6.921875 0 -10.5 3.96875q-3.578125 3.96875 -3.578125 11.265625l0 2.6875l29.046875 -0.25l-1.140625 1.28125zm62.846863 41.46875q-8.96875 0 -15.5625 -3.390625q-6.59375 -3.390625 -10.25 -9.59375q-3.640625 -6.21875 -3.640625 -14.671875l0 -17.40625q0 -8.453125 3.640625 -14.65625q3.65625 -6.2031403 10.25 -9.593765q6.59375 -3.390625 15.5625 -3.390625q9.078125 0 15.609375 3.390625q6.53125 3.390625 10.171875 9.593765q3.65625 6.203125 3.65625 14.53125l0 17.53125q0 8.453125 -3.65625 14.671875q-3.640625 6.203125 -10.171875 9.59375q-6.53125 3.390625 -15.609375 3.390625zm0 -13.953125q6.390625 0 9.90625 -3.515625q3.53125 -3.53125 3.53125 -10.1875l0 -17.40625q0 -6.78125 -3.53125 -10.234375q-3.515625 -3.453125 -9.90625 -3.453125q-6.28125 0 -9.875 3.453125q-3.578125 3.453125 -3.578125 10.234375l0 17.40625q0 6.65625 3.578125 10.1875q3.59375 3.515625 9.875 3.515625zm46.0813 30.453125l0 -14.453125l61.4375 0l0 14.453125l-61.4375 0z" fill-rule="nonzero"/></g></svg>